<?xml version="1.0" encoding="utf-8"?>
<!-- Generator: Adobe Illustrator 16.0.0, SVG Export Plug-In . SVG Version: 6.00 Build 0)  -->
<!DOCTYPE svg PUBLIC "-//W3C//DTD SVG 1.1//EN" "http://www.w3.org/Graphics/SVG/1.1/DTD/svg11.dtd">
<svg version="1.1" id="Layer_1" xmlns="http://www.w3.org/2000/svg" xmlns:xlink="http://www.w3.org/1999/xlink" x="0px" y="0px"
	 width="57px" height="57.25px" viewBox="0 0 57 57.25" enable-background="new 0 0 57 57.25" xml:space="preserve">
<g>
	<path fill="#879FE7" d="M57,49.25c0,4.4-3.6,8-8,8H8c-4.4,0-8-3.6-8-8V8c0-4.4,3.6-8,8-8h41c4.4,0,8,3.6,8,8V49.25z"/>
</g>
<path fill="#F2A640" d="M27.018,22.184c0,1.787-1.462,3.249-3.249,3.249h-12.02c-1.787,0-3.249-1.462-3.249-3.249V9.514
	c0-1.787,1.462-3.249,3.249-3.249h12.02c1.787,0,3.249,1.462,3.249,3.249V22.184z"/>
<path fill="#FFFFFF" d="M25.285,13.891v7.815c0,1.072-0.877,1.949-1.949,1.949H12.182c-1.072,0-1.949-0.877-1.949-1.949v-7.815
	H25.285z"/>
<path fill="#603F99" d="M48.684,27.184c0,1.787-1.462,3.249-3.249,3.249h-12.02c-1.787,0-3.249-1.462-3.249-3.249V9.514
	c0-1.787,1.462-3.249,3.249-3.249h12.02c1.787,0,3.249,1.462,3.249,3.249V27.184z"/>
<path fill="#FFFFFF" d="M46.952,13.891v12.815c0,1.072-0.877,1.949-1.949,1.949H33.849c-1.072,0-1.949-0.877-1.949-1.949V13.891
	H46.952z"/>
<path fill="#3C995B" d="M27.018,47.934c0,1.787-1.462,3.249-3.249,3.249h-12.02c-1.787,0-3.249-1.462-3.249-3.249V30.264
	c0-1.787,1.462-3.249,3.249-3.249h12.02c1.787,0,3.249,1.462,3.249,3.249V47.934z"/>
<path fill="#FFFFFF" d="M25.285,34.641v12.815c0,1.072-0.877,1.949-1.949,1.949H12.182c-1.072,0-1.949-0.877-1.949-1.949V34.641
	H25.285z"/>
<path fill="#AD2C2D" d="M48.684,48.001c0,1.787-1.462,3.249-3.249,3.249h-12.02c-1.787,0-3.249-1.462-3.249-3.249V36.332
	c0-1.787,1.462-3.249,3.249-3.249h12.02c1.787,0,3.249,1.462,3.249,3.249V48.001z"/>
<path fill="#FFFFFF" d="M46.952,40.708v6.815c0,1.072-0.877,1.949-1.949,1.949H33.849c-1.072,0-1.949-0.877-1.949-1.949v-6.815
	H46.952z"/>
</svg>
